<svg width="636" height="475" viewBox="0 0 636 475" fill="none" xmlns="http://www.w3.org/2000/svg">
<path d="M635.53 416.873H0V417.191H635.53V416.873Z" fill="#E0E0E0"/>
<path d="M480.028 430.334H436.304V430.652H480.028V430.334Z" fill="#E0E0E0"/>
<path d="M141.138 430.486H116.53V430.804H141.138V430.486Z" fill="#E0E0E0"/>
<path d="M319.037 429.749H269.16V430.067H319.037V429.749Z" fill="#E0E0E0"/>
<path d="M267.888 425.224H245.594V425.541H267.888V425.224Z" fill="#E0E0E0"/>
<path d="M539.642 425.39H472.288V425.707H539.642V425.39Z" fill="#E0E0E0"/>
<path d="M301.241 360.183H55.8124C53.8898 360.18 52.047 359.414 50.6886 358.053C49.3303 356.692 48.5674 354.848 48.5674 352.926V7.91887C48.5841 6.00721 49.3544 4.17935 50.711 2.83232C52.0675 1.48529 53.9007 0.727884 55.8124 0.724609H301.241C303.166 0.724609 305.012 1.48927 306.373 2.85037C307.734 4.21148 308.499 6.05753 308.499 7.98242V352.926C308.499 354.85 307.734 356.697 306.373 358.058C305.012 359.419 303.166 360.183 301.241 360.183ZM55.8124 0.978824C53.974 0.982192 52.2121 1.71486 50.9133 3.016C49.6146 4.31715 48.8851 6.08045 48.8851 7.91887V352.926C48.8851 354.764 49.6146 356.527 50.9133 357.828C52.2121 359.13 53.974 359.862 55.8124 359.866H301.241C303.081 359.862 304.844 359.13 306.145 357.829C307.446 356.528 308.178 354.765 308.181 352.926V7.91887C308.178 6.07929 307.446 4.31601 306.145 3.01523C304.844 1.71444 303.081 0.982184 301.241 0.978824H55.8124Z" fill="#E0E0E0"/>
<path d="M576.184 360.183H330.742C328.818 360.18 326.974 359.414 325.614 358.054C324.253 356.693 323.488 354.849 323.484 352.926V7.91887C323.504 6.00605 324.278 4.17821 325.636 2.83153C326.995 1.48485 328.829 0.727848 330.742 0.724609H576.184C578.093 0.731225 579.923 1.49011 581.277 2.83678C582.631 4.18345 583.399 6.00941 583.416 7.91887V352.926C583.416 354.846 582.655 356.688 581.299 358.049C579.944 359.409 578.104 360.177 576.184 360.183ZM330.742 0.978824C328.903 0.982184 327.139 1.71444 325.839 3.01523C324.538 4.31601 323.805 6.07929 323.802 7.91887V352.926C323.805 354.765 324.538 356.528 325.839 357.829C327.139 359.13 328.903 359.862 330.742 359.866H576.184C578.023 359.862 579.787 359.13 581.087 357.829C582.388 356.528 583.12 354.765 583.124 352.926V7.91887C583.12 6.07929 582.388 4.31601 581.087 3.01523C579.787 1.71444 578.023 0.982184 576.184 0.978824H330.742Z" fill="#E0E0E0"/>
<path d="M558.39 257.774C542.756 233.966 557.03 208.38 554.653 181.891C552.276 155.402 527.109 149.631 531.875 127.235C537.392 101.203 522.686 76.2266 506.022 76.2266C489.358 76.2266 474.665 101.14 480.181 127.196C484.948 149.631 459.844 155.414 457.404 181.853C454.964 208.291 469.301 233.966 453.654 257.735C438.008 281.504 442.126 313.065 450.934 328.712C453.277 332.864 456.102 336.725 459.349 340.215C465.318 346.624 472.544 351.735 480.575 355.229C488.606 358.724 497.27 360.527 506.028 360.527C514.787 360.527 523.451 358.724 531.482 355.229C539.513 351.735 546.738 346.624 552.708 340.215C555.947 336.721 558.767 332.86 561.11 328.712C569.931 313.103 574.036 281.632 558.39 257.774Z" fill="#E0E0E0"/>
<path d="M506.021 275.835C507.059 275.835 508.088 276.039 509.047 276.437C510.006 276.834 510.877 277.416 511.612 278.151C512.346 278.885 512.928 279.756 513.325 280.716C513.723 281.675 513.927 282.703 513.927 283.741V416.873H498.115V283.741C498.115 282.703 498.32 281.675 498.717 280.716C499.114 279.756 499.697 278.885 500.431 278.151C501.165 277.416 502.037 276.834 502.996 276.437C503.955 276.039 504.983 275.835 506.021 275.835Z" fill="#F0F0F0"/>
<path d="M406.624 416.873H385.131V283.754C385.138 280.901 386.274 278.167 388.292 276.149C390.309 274.131 393.044 272.995 395.897 272.988C398.75 272.995 401.484 274.131 403.502 276.149C405.519 278.167 406.656 280.901 406.663 283.754L406.624 416.873Z" fill="#E0E0E0"/>
<path d="M395.859 380.965C432.482 380.965 462.17 351.277 462.17 314.654C462.17 278.031 432.482 248.342 395.859 248.342C359.236 248.342 329.548 278.031 329.548 314.654C329.548 351.277 359.236 380.965 395.859 380.965Z" fill="#F0F0F0"/>
<path d="M473.78 294.755C477.26 280.748 468.725 266.572 454.718 263.093C440.711 259.613 426.535 268.148 423.056 282.155C419.576 296.162 428.111 310.338 442.118 313.818C456.125 317.297 470.301 308.763 473.78 294.755Z" fill="#F0F0F0"/>
<path d="M357.487 275.466C358.86 267.034 353.138 259.085 344.706 257.712C336.273 256.338 328.325 262.061 326.951 270.493C325.578 278.925 331.3 286.874 339.733 288.247C348.165 289.621 356.113 283.898 357.487 275.466Z" fill="#F0F0F0"/>
<path d="M359.049 275.835C365.044 275.835 369.904 270.975 369.904 264.98C369.904 258.985 365.044 254.125 359.049 254.125C353.054 254.125 348.194 258.985 348.194 264.98C348.194 270.975 353.054 275.835 359.049 275.835Z" fill="#F0F0F0"/>
<path d="M259.296 337.419C248.985 338.955 239.131 342.715 230.418 348.439C230.342 338.372 228.499 328.826 223.77 321.111C216.576 328.115 210.742 337.19 205.975 346.952C204.234 328.661 199.417 310.866 188.753 299.592C172.775 309.646 164.539 326.399 160.624 344.143C154.156 332.178 144.769 322.043 133.334 314.679C123.56 324.975 120.433 339.211 120.7 353.803C109.591 340.863 97.2616 330.771 85.2374 329.589C82.2758 350.041 88.5803 369.335 96.6007 384.588C101.808 394.374 109.587 402.554 119.099 408.246C128.612 413.937 139.497 416.925 150.583 416.886H202.81C225.067 416.886 245.938 405.014 256.373 385.351C262.97 372.894 266.122 356.866 259.296 337.419Z" fill="#E0E0E0"/>
<path d="M244.375 73.3536C250.819 54.4528 245.646 40.9922 229.923 40.9922C220.034 40.9922 207.768 46.2925 195.82 54.9104C194.473 49.9914 190.672 47.0552 184.559 47.0552C173.793 47.0552 158.959 56.1561 147.329 68.9939C144.055 65.8829 139.72 64.1334 135.203 64.1002C124.895 63.5156 112.426 68.7524 101.584 77.2558C101.041 76.4954 100.323 75.876 99.4919 75.4493C98.6605 75.0225 97.7392 74.8008 96.8047 74.8027C90.8688 74.4722 82.823 79.7598 78.8446 86.5982C78.6031 87.0176 78.387 87.4371 78.1582 87.8693H247.502C248.01 81.8952 246.955 76.9126 244.375 73.3536Z" fill="#F0F0F0"/>
<path d="M244.895 188.119C248.048 178.891 245.544 172.319 237.841 172.319C232.998 172.319 227.012 174.861 221.177 179.12C220.863 177.933 220.137 176.898 219.128 176.199C218.119 175.5 216.895 175.184 215.674 175.306C210.424 175.306 203.179 179.755 197.485 186.034C195.889 184.509 193.769 183.654 191.562 183.645C186.478 183.352 180.44 185.907 175.14 190.063C174.883 189.696 174.543 189.394 174.148 189.182C173.752 188.97 173.313 188.854 172.864 188.843C169.966 188.678 166.039 191.258 164.094 194.601L163.751 195.211H246.472C246.817 192.734 246.258 190.216 244.895 188.119Z" fill="#F0F0F0"/>
<path d="M435.681 118.286C435.028 118.195 434.37 118.148 433.711 118.147C434.321 108.931 430.8 103.034 423.263 103.034C417.835 103.034 411.162 106.11 404.375 111.308C406.319 93.4115 400.091 81.7812 385.982 81.7812C374.619 81.7812 360.218 89.4077 345.995 101.686C344.724 94.6699 340.555 90.45 333.513 90.45C321.146 90.45 303.567 103.466 289.471 121.82C287.865 119.704 285.805 117.974 283.442 116.757C281.08 115.541 278.476 114.869 275.82 114.791C264.05 113.965 249.42 121.439 236.417 133.616C235.944 132.589 235.191 131.716 234.244 131.098C233.298 130.479 232.196 130.141 231.066 130.12C224.621 129.662 215.813 136.386 210.589 145.373H446.04C451.569 131.747 447.171 119.824 435.681 118.286Z" fill="#F0F0F0"/>
<path d="M317.765 474.275C453.873 474.275 564.211 467.833 564.211 459.887C564.211 451.94 453.873 445.498 317.765 445.498C181.657 445.498 71.3193 451.94 71.3193 459.887C71.3193 467.833 181.657 474.275 317.765 474.275Z" fill="#F5F5F5"/>
<path d="M62.1045 122.188L351.868 163.905L390.75 203.143L62.1045 122.188Z" fill="#407BFF"/>
<path opacity="0.6" d="M62.1045 122.188L351.868 163.905L390.75 203.143L62.1045 122.188Z" fill="white"/>
<path d="M62.1045 122.188L351.868 163.905L338.42 220.646L62.1045 122.188Z" fill="#407BFF"/>
<path opacity="0.2" d="M62.1045 122.188L351.868 163.905L338.42 220.646L62.1045 122.188Z" fill="black"/>
<path d="M332.472 56.4994L349.288 135.306C349.725 137.364 349.328 139.511 348.185 141.277C347.041 143.042 345.243 144.282 343.187 144.724L193.1 176.755C191.042 177.189 188.897 176.791 187.132 175.648C185.367 174.505 184.126 172.709 183.681 170.654L166.852 91.8479C166.419 89.7886 166.819 87.6413 167.964 85.8761C169.11 84.111 170.909 82.8716 172.966 82.4293L323.053 50.3983C325.112 49.9647 327.259 50.3646 329.025 51.5104C330.79 52.6562 332.029 54.4547 332.472 56.5121V56.4994Z" fill="#407BFF"/>
<path opacity="0.4" d="M332.472 56.4994L349.288 135.306C349.725 137.364 349.328 139.511 348.185 141.277C347.041 143.042 345.243 144.282 343.187 144.724L193.1 176.755C191.042 177.189 188.897 176.791 187.132 175.648C185.367 174.505 184.126 172.709 183.681 170.654L166.852 91.8479C166.419 89.7886 166.819 87.6413 167.964 85.8761C169.11 84.111 170.909 82.8716 172.966 82.4293L323.053 50.3983C325.112 49.9647 327.259 50.3646 329.025 51.5104C330.79 52.6562 332.029 54.4547 332.472 56.5121V56.4994Z" fill="black"/>
<path d="M328.773 51.3387L278.63 112.897C273.98 118.604 267.52 122.553 260.321 124.09C253.121 125.627 245.612 124.66 239.036 121.349L168.124 85.6322C169.271 83.9842 171.003 82.8344 172.967 82.4164L323.054 50.3854C325.012 49.9686 327.056 50.3092 328.773 51.3387Z" fill="#407BFF"/>
<path d="M62.1045 122.188L301.102 178.993L338.42 220.646L62.1045 122.188Z" fill="#407BFF"/>
<path opacity="0.6" d="M62.1045 122.188L301.102 178.993L338.42 220.646L62.1045 122.188Z" fill="white"/>
<path d="M149.285 176.939L148.643 178.036L175.239 193.615L175.881 192.519L149.285 176.939Z" fill="#407BFF"/>
<path d="M187.624 199.388L186.981 200.484L196.545 206.086L197.188 204.99L187.624 199.388Z" fill="#407BFF"/>
<path d="M62.1045 122.188L301.102 178.993L254.645 234.983L62.1045 122.188Z" fill="#407BFF"/>
<path d="M381.776 255.27C381.454 255.27 381.135 255.21 380.835 255.092L341.915 239.686C341.293 239.435 340.795 238.948 340.53 238.332C340.265 237.715 340.254 237.018 340.501 236.394C340.748 235.77 341.231 235.268 341.847 234.999C342.462 234.73 343.158 234.715 343.784 234.958L382.717 250.363C383.267 250.581 383.725 250.984 384.01 251.503C384.295 252.022 384.39 252.624 384.279 253.206C384.167 253.788 383.856 254.312 383.399 254.689C382.942 255.066 382.368 255.271 381.776 255.27Z" fill="#407BFF"/>
<path opacity="0.3" d="M381.776 255.27C381.454 255.27 381.135 255.21 380.835 255.092L341.915 239.686C341.293 239.435 340.795 238.948 340.53 238.332C340.265 237.715 340.254 237.018 340.501 236.394C340.748 235.77 341.231 235.268 341.847 234.999C342.462 234.73 343.158 234.715 343.784 234.958L382.717 250.363C383.267 250.581 383.725 250.984 384.01 251.503C384.295 252.022 384.39 252.624 384.279 253.206C384.167 253.788 383.856 254.312 383.399 254.689C382.942 255.066 382.368 255.271 381.776 255.27Z" fill="black"/>
<path d="M379.476 232.949C379.157 232.947 378.842 232.882 378.548 232.759L357.639 224.433C357.327 224.312 357.041 224.13 356.799 223.898C356.557 223.666 356.363 223.389 356.229 223.082C356.094 222.774 356.022 222.444 356.016 222.108C356.01 221.773 356.07 221.44 356.194 221.128C356.317 220.817 356.5 220.532 356.734 220.292C356.968 220.051 357.246 219.859 357.554 219.727C357.862 219.595 358.194 219.524 358.529 219.521C358.864 219.517 359.197 219.579 359.508 219.705L380.417 227.992C381.043 228.239 381.546 228.724 381.816 229.341C382.085 229.958 382.098 230.657 381.853 231.284C381.674 231.771 381.35 232.191 380.925 232.489C380.5 232.787 379.995 232.947 379.476 232.949Z" fill="#407BFF"/>
<path opacity="0.5" d="M379.476 232.949C379.157 232.947 378.842 232.882 378.548 232.759L357.639 224.433C357.327 224.312 357.041 224.13 356.799 223.898C356.557 223.666 356.363 223.389 356.229 223.082C356.094 222.774 356.022 222.444 356.016 222.108C356.01 221.773 356.07 221.44 356.194 221.128C356.317 220.817 356.5 220.532 356.734 220.292C356.968 220.051 357.246 219.859 357.554 219.727C357.862 219.595 358.194 219.524 358.529 219.521C358.864 219.517 359.197 219.579 359.508 219.705L380.417 227.992C381.043 228.239 381.546 228.724 381.816 229.341C382.085 229.958 382.098 230.657 381.853 231.284C381.674 231.771 381.35 232.191 380.925 232.489C380.5 232.787 379.995 232.947 379.476 232.949Z" fill="white"/>
<path d="M335.764 254.939C335.447 254.935 335.132 254.875 334.836 254.761L296.87 239.686C296.557 239.565 296.271 239.383 296.029 239.151C295.787 238.919 295.594 238.642 295.459 238.334C295.325 238.027 295.253 237.697 295.247 237.361C295.24 237.026 295.301 236.693 295.424 236.381C295.547 236.07 295.731 235.785 295.964 235.545C296.198 235.304 296.477 235.112 296.785 234.98C297.093 234.848 297.424 234.777 297.759 234.774C298.094 234.77 298.427 234.832 298.738 234.958L336.705 249.982C337.255 250.199 337.713 250.602 337.998 251.121C338.283 251.64 338.378 252.243 338.267 252.824C338.155 253.406 337.844 253.931 337.387 254.307C336.93 254.684 336.356 254.889 335.764 254.888V254.939Z" fill="#407BFF"/>
<path opacity="0.3" d="M335.764 254.939C335.447 254.935 335.132 254.875 334.836 254.761L296.87 239.686C296.557 239.565 296.271 239.383 296.029 239.151C295.787 238.919 295.594 238.642 295.459 238.334C295.325 238.027 295.253 237.697 295.247 237.361C295.24 237.026 295.301 236.693 295.424 236.381C295.547 236.07 295.731 235.785 295.964 235.545C296.198 235.304 296.477 235.112 296.785 234.98C297.093 234.848 297.424 234.777 297.759 234.774C298.094 234.77 298.427 234.832 298.738 234.958L336.705 249.982C337.255 250.199 337.713 250.602 337.998 251.121C338.283 251.64 338.378 252.243 338.267 252.824C338.155 253.406 337.844 253.931 337.387 254.307C336.93 254.684 336.356 254.889 335.764 254.888V254.939Z" fill="black"/>
<path d="M473.215 140.313C476.584 146.885 479.672 153.469 482.609 160.206C485.545 166.942 488.277 173.768 490.667 180.924L491.531 183.632C491.684 184.115 491.9 184.903 492.027 185.462C492.154 186.021 492.269 186.657 492.332 187.191C492.623 189.241 492.772 191.31 492.777 193.381C492.796 197.201 492.618 201.019 492.243 204.82C491.533 212.179 490.379 219.489 488.786 226.708L481.808 225.933C481.719 218.777 481.655 211.544 481.401 204.49C481.287 200.982 481.083 197.461 480.727 194.156C480.566 192.604 480.312 191.063 479.965 189.542C479.901 189.186 479.8 188.919 479.723 188.627C479.647 188.335 479.571 188.233 479.444 187.852L478.478 185.449C475.821 179.018 472.834 172.535 469.784 166.078L460.556 146.707L473.215 140.313Z" fill="#E4897B"/>
<path d="M481.909 223.696L478.655 229.785L489.053 232.683C489.053 232.683 491.035 227.789 488.671 223.925L481.909 223.696Z" fill="#E4897B"/>
<path d="M474.678 238.555L484.236 239.317L489.053 232.682L478.656 229.784L474.678 238.555Z" fill="#E4897B"/>
<path d="M429.453 96.3853C429.313 97.1353 428.792 97.6564 428.309 97.5547C427.826 97.453 427.559 96.7794 427.712 96.0422C427.864 95.3049 428.373 94.7711 428.856 94.8728C429.339 94.9745 429.618 95.6481 429.453 96.3853Z" fill="#263238"/>
<path d="M428.868 97.6562C427.526 99.7358 425.905 101.622 424.051 103.262C424.484 103.722 425.011 104.083 425.597 104.32C426.183 104.557 426.813 104.664 427.445 104.634L428.868 97.6562Z" fill="#DE5753"/>
<path d="M432.986 92.8397C432.866 92.8366 432.752 92.7864 432.669 92.6999C432.303 92.2822 431.845 91.9564 431.331 91.7488C430.816 91.5412 430.26 91.4577 429.707 91.5051C429.602 91.5061 429.499 91.4697 429.418 91.4024C429.337 91.3351 429.283 91.2413 429.265 91.1375C429.246 91.0338 429.265 90.9269 429.318 90.836C429.372 90.745 429.455 90.6758 429.555 90.6407C430.261 90.5512 430.979 90.6378 431.645 90.8928C432.31 91.1478 432.902 91.5634 433.368 92.1025C433.449 92.1856 433.495 92.2974 433.495 92.4139C433.495 92.5303 433.449 92.6421 433.368 92.7253C433.317 92.7718 433.256 92.8063 433.19 92.8261C433.124 92.8459 433.054 92.8506 432.986 92.8397Z" fill="#263238"/>
<path d="M450.476 106.771C449.141 113.609 447.807 126.116 452.586 130.679C452.586 130.679 450.717 137.607 438.02 137.607C424.038 137.607 431.359 130.679 431.359 130.679C438.986 128.862 438.769 123.205 437.448 117.905L450.476 106.771Z" fill="#E4897B"/>
<path d="M454.506 134.988C455.51 131.645 456.616 127.819 454.328 126.611C451.786 125.34 437.97 123.942 433.203 126.421C428.437 128.899 429.797 135.699 429.797 135.699L454.506 134.988Z" fill="#263238"/>
<path d="M483.816 451.955C483.422 452.008 483.02 451.981 482.636 451.876C482.252 451.771 481.893 451.591 481.579 451.345C481.469 451.191 481.409 451.007 481.409 450.818C481.409 450.628 481.469 450.444 481.579 450.29C481.652 450.158 481.752 450.044 481.873 449.954C481.993 449.864 482.132 449.801 482.278 449.769C483.651 449.464 486.219 451.218 486.333 451.294C486.366 451.322 486.392 451.357 486.407 451.397C486.423 451.437 486.428 451.481 486.422 451.523C486.415 451.564 486.395 451.602 486.366 451.632C486.336 451.661 486.298 451.681 486.257 451.688C485.455 451.861 484.637 451.951 483.816 451.955ZM482.647 450.176H482.38C482.294 450.194 482.213 450.23 482.143 450.283C482.072 450.336 482.015 450.403 481.973 450.481C481.77 450.837 481.897 450.989 481.973 451.04C482.367 451.574 484.274 451.574 485.672 451.345C484.761 450.744 483.728 450.353 482.647 450.201V450.176Z" fill="#407BFF"/>
<path d="M486.206 451.726H486.105C485.139 451.192 483.27 449.184 483.461 448.116C483.493 447.952 483.582 447.803 483.712 447.696C483.842 447.59 484.005 447.532 484.173 447.532C484.34 447.514 484.51 447.529 484.671 447.577C484.832 447.625 484.983 447.705 485.113 447.811C486.194 448.701 486.384 451.396 486.384 451.51C486.39 451.55 486.383 451.591 486.364 451.627C486.346 451.664 486.318 451.694 486.283 451.714C486.258 451.723 486.232 451.728 486.206 451.726ZM484.325 447.913H484.274C483.982 447.913 483.957 448.091 483.944 448.142C483.829 448.765 485.024 450.303 485.978 451.027C485.913 449.965 485.533 448.947 484.884 448.104C484.799 448.037 484.701 447.988 484.596 447.959C484.491 447.931 484.382 447.924 484.274 447.938L484.325 447.913Z" fill="#407BFF"/>
<path d="M427.75 451.955C426.555 451.955 425.399 451.79 425.005 451.256C424.905 451.114 424.852 450.946 424.852 450.773C424.852 450.6 424.905 450.431 425.005 450.29C425.082 450.159 425.185 450.046 425.307 449.956C425.429 449.867 425.569 449.803 425.716 449.769C427.254 449.349 430.534 451.205 430.673 451.281C430.711 451.305 430.74 451.34 430.758 451.381C430.776 451.421 430.782 451.466 430.775 451.51C430.768 451.555 430.747 451.596 430.715 451.628C430.683 451.66 430.642 451.681 430.597 451.688C429.658 451.865 428.705 451.954 427.75 451.955ZM426.263 450.15C426.124 450.13 425.983 450.13 425.843 450.15C425.754 450.168 425.669 450.204 425.595 450.256C425.52 450.309 425.458 450.377 425.411 450.455C425.246 450.735 425.31 450.862 425.411 450.938C425.831 451.523 428.195 451.561 429.949 451.319C428.806 450.702 427.554 450.314 426.263 450.175V450.15Z" fill="#407BFF"/>
<path d="M430.571 451.726H430.482C429.351 451.23 427.127 449.184 427.292 448.154C427.292 447.9 427.508 447.595 428.118 447.531C428.345 447.497 428.577 447.513 428.796 447.579C429.016 447.645 429.219 447.759 429.389 447.913C430.584 448.879 430.825 451.395 430.838 451.51C430.843 451.548 430.837 451.588 430.822 451.624C430.806 451.66 430.781 451.69 430.749 451.713C430.722 451.728 430.692 451.736 430.662 451.739C430.631 451.741 430.6 451.736 430.571 451.726ZM428.296 447.913H428.156C427.762 447.913 427.737 448.116 427.724 448.167C427.622 448.802 429.148 450.391 430.266 451.078C430.156 450.01 429.711 449.004 428.995 448.205C428.814 448.048 428.586 447.954 428.347 447.938L428.296 447.913Z" fill="#407BFF"/>
<path d="M440.841 451.497H431.499L430.571 429.876H439.914L440.841 451.497Z" fill="#E4897B"/>
<path d="M496.908 451.497H487.565L482.875 429.876H492.205L496.908 451.497Z" fill="#E4897B"/>
<path d="M486.906 450.417H497.392C497.579 450.418 497.76 450.483 497.906 450.601C498.051 450.719 498.152 450.882 498.193 451.065L500.036 459.365C500.078 459.567 500.074 459.776 500.024 459.977C499.974 460.177 499.88 460.364 499.748 460.522C499.616 460.681 499.45 460.808 499.262 460.894C499.074 460.98 498.869 461.022 498.663 461.018C495.002 460.954 493.223 460.738 488.609 460.738C485.774 460.738 479.927 461.043 476 461.043C472.072 461.043 471.577 457.23 473.178 456.81C480.372 455.234 483.08 453.061 485.38 451.002C485.798 450.624 486.342 450.415 486.906 450.417Z" fill="#263238"/>
<path d="M431.563 450.417H441.731C441.918 450.418 442.099 450.483 442.245 450.601C442.39 450.719 442.491 450.882 442.532 451.065L444.375 459.365C444.419 459.566 444.417 459.773 444.37 459.973C444.322 460.172 444.23 460.358 444.101 460.517C443.971 460.676 443.807 460.804 443.621 460.89C443.436 460.977 443.233 461.021 443.027 461.018C439.354 460.954 434.041 460.738 429.414 460.738C424.012 460.738 419.335 461.043 412.992 461.043C409.179 461.043 408.099 457.23 409.7 456.81C417.009 455.209 422.97 455.044 429.287 451.154C429.96 450.697 430.749 450.441 431.563 450.417Z" fill="#263238"/>
<path d="M427.076 147.076C419.268 146.471 411.499 145.44 403.803 143.987C399.99 143.25 396.1 142.424 392.236 141.381C388.276 140.368 384.386 139.094 380.593 137.568C379.615 137.161 378.623 136.717 377.645 136.297C376.543 135.754 375.481 135.134 374.467 134.441C372.637 133.234 371.06 131.976 369.497 130.73C366.383 128.188 363.498 125.646 360.6 123.04C354.918 117.778 349.529 112.337 344.33 106.618L349.008 101.394L367.451 114.651C370.488 116.837 373.564 118.985 376.59 121.006C378.089 122.01 379.627 122.951 381.038 123.752C381.628 124.088 382.24 124.385 382.869 124.641C383.619 124.934 384.381 125.226 385.182 125.506C392.052 127.621 399.077 129.194 406.193 130.209C413.45 131.353 420.95 132.293 428.195 133.056L427.076 147.076Z" fill="#E4897B"/>
<path d="M469.301 132.789C478.058 134.797 486.905 160.384 486.905 160.384L468.894 173.311C468.894 173.311 463.81 161.388 458.903 150.965C453.768 140.047 460.352 130.743 469.301 132.789Z" fill="#407BFF"/>
<path opacity="0.4" d="M469.301 132.789C478.058 134.797 486.905 160.384 486.905 160.384L468.894 173.311C468.894 173.311 463.81 161.388 458.903 150.965C453.768 140.047 460.352 130.743 469.301 132.789Z" fill="black"/>
<path d="M464.255 146.771L460.684 154.766C464.382 162.748 467.763 170.654 468.666 172.764C468.539 163.32 466.747 151.601 464.255 146.771Z" fill="#407BFF"/>
<path opacity="0.6" d="M464.255 146.771L460.684 154.766C464.382 162.748 467.763 170.654 468.666 172.764C468.539 163.32 466.747 151.601 464.255 146.771Z" fill="black"/>
<path d="M416.996 133.272C416.996 133.272 407.057 144.496 416.437 213.985H466.377C466.733 206.359 461.916 168.913 469.3 132.789C463.78 131.726 458.197 131.021 452.586 130.679C445.516 130.272 438.429 130.272 431.359 130.679C426.511 131.168 421.709 132.035 416.996 133.272Z" fill="#407BFF"/>
<path opacity="0.4" d="M416.996 133.272C416.996 133.272 407.057 144.496 416.437 213.985H466.377C466.733 206.359 461.916 168.913 469.3 132.789C463.78 131.726 458.197 131.021 452.586 130.679C445.516 130.272 438.429 130.272 431.359 130.679C426.511 131.168 421.709 132.035 416.996 133.272Z" fill="black"/>
<path d="M413.298 146.771C412.967 149.402 412.713 152.516 412.548 156.189C417.48 154.709 422.166 152.507 426.453 149.656L413.298 146.771Z" fill="#407BFF"/>
<path opacity="0.6" d="M413.298 146.771C412.967 149.402 412.713 152.516 412.548 156.189C417.48 154.709 422.166 152.507 426.453 149.656L413.298 146.771Z" fill="black"/>
<path d="M434.702 148.169C428.016 154.092 402.493 153.495 402.493 153.495L401.654 128.785C410.273 130.013 418.967 130.641 427.673 130.666C441.896 130.374 441.998 141.636 434.702 148.169Z" fill="#407BFF"/>
<path opacity="0.4" d="M434.702 148.169C428.016 154.092 402.493 153.495 402.493 153.495L401.654 128.785C410.273 130.013 418.967 130.641 427.673 130.666C441.896 130.374 441.998 141.636 434.702 148.169Z" fill="black"/>
<path d="M349.249 101.445L342.894 93.958L336.043 101.584C336.043 101.584 340.263 108.677 346.961 107.558L349.249 101.445Z" fill="#E4897B"/>
<path d="M333.793 85.2256L331.327 95.0001L335.992 101.533L342.843 93.9578L333.793 85.2256Z" fill="#E4897B"/>
<path d="M430.571 429.889L431.054 441.023H440.397L439.914 429.889H430.571Z" fill="#CE6F64"/>
<path d="M492.217 429.889H482.875L485.29 441.023H494.632L492.217 429.889Z" fill="#CE6F64"/>
<path d="M436.19 87.1576C427.813 83.3444 425.169 66.4011 449.269 70.6337C449.269 70.6337 445.634 74.6503 453.006 77.1924C460.378 79.7346 454.213 95.4323 436.19 87.1576Z" fill="#263238"/>
<path d="M454.391 99.8685C451.989 108.766 451.048 114.181 445.494 117.905C437.181 123.498 426.847 117.079 426.517 107.584C426.225 99.055 430.203 85.8486 439.8 84.0437C441.918 83.6284 444.107 83.7627 446.159 84.4338C448.21 85.1049 450.056 86.2904 451.519 87.8773C452.982 89.4642 454.014 91.3995 454.517 93.4987C455.02 95.5979 454.977 97.7909 454.391 99.8685Z" fill="#E4897B"/>
<path d="M448.938 75.0827C454.645 78.2604 462.373 80.167 461.649 84.692C460.696 90.2212 466.314 86.7639 465.004 94.9877C464.153 100.364 454.239 116.659 447.21 115.871C436.711 114.6 438.045 98.6357 438.007 90.2212C437.982 85.2513 437.753 68.8164 448.938 75.0827Z" fill="#263238"/>
<path d="M436.749 82.2129C434.207 82.8103 430.839 97.4657 440.689 98.8131C452.014 100.351 436.749 82.2129 436.749 82.2129Z" fill="#263238"/>
<path d="M437.003 87.4116C433.889 87.6912 426.834 83.9416 427.699 78.298C427.699 78.2599 432.16 84.8949 437.003 87.4116Z" fill="#263238"/>
<path d="M441.63 99.9829C440.674 102.079 439.052 103.799 437.016 104.877C434.334 106.275 432.821 104.241 433.431 101.546C433.978 99.1313 436.037 95.4833 438.795 95.191C441.553 94.8986 442.736 97.4408 441.63 99.9829Z" fill="#E4897B"/>
<path d="M455.611 89.6998C457.511 88.8754 459.176 87.5928 460.458 85.9668C461.741 84.3408 462.599 82.4222 462.958 80.3828C462.958 80.3828 467.153 92.0385 455.611 89.6998Z" fill="#263238"/>
<path d="M466.212 89.5095C465.328 88.9155 464.31 88.55 463.25 88.4457C462.189 88.3415 461.12 88.5017 460.137 88.9121C460.137 88.9121 464.052 83.8406 466.212 89.5095Z" fill="#263238"/>
<path d="M434.156 213.985C434.156 213.985 444.757 285.343 450.566 312.074C456.921 341.309 480.944 438.876 480.944 438.876H498.04C498.04 438.876 482.215 343.711 478.58 314.68C474.639 283.221 466.378 213.935 466.378 213.935L434.156 213.985Z" fill="#407BFF"/>
<path opacity="0.5" d="M434.156 213.985C434.156 213.985 444.757 285.343 450.566 312.074C456.921 341.309 480.944 438.876 480.944 438.876H498.04C498.04 438.876 482.215 343.711 478.58 314.68C474.639 283.221 466.378 213.935 466.378 213.935L434.156 213.985Z" fill="white"/>
<path d="M478.211 432.571C478.135 432.571 479.978 439.143 479.978 439.143H499.222L498.866 433.283L478.211 432.571Z" fill="#407BFF"/>
<path opacity="0.1" d="M478.211 432.571C478.135 432.571 479.978 439.143 479.978 439.143H499.222L498.866 433.283L478.211 432.571Z" fill="black"/>
<path d="M440.854 239.407C453.107 241.809 451.81 287.504 450.336 311.006C446.802 294.393 441.629 262.426 438.096 239.737C438.951 239.316 439.924 239.199 440.854 239.407Z" fill="#407BFF"/>
<path opacity="0.4" d="M440.854 239.407C453.107 241.809 451.81 287.504 450.336 311.006C446.802 294.393 441.629 262.426 438.096 239.737C438.951 239.316 439.924 239.199 440.854 239.407Z" fill="white"/>
<path d="M416.437 213.985C416.437 213.985 415.166 283.793 416.17 312.277C417.225 341.893 427.61 438.876 427.61 438.876H443.422C443.422 438.876 444.007 343.622 444.693 314.54C445.468 282.827 449.294 213.985 449.294 213.985H416.437Z" fill="#407BFF"/>
<path opacity="0.5" d="M416.437 213.985C416.437 213.985 415.166 283.793 416.17 312.277C417.225 341.893 427.61 438.876 427.61 438.876H443.422C443.422 438.876 444.007 343.622 444.693 314.54C445.468 282.827 449.294 213.985 449.294 213.985H416.437Z" fill="white"/>
<path d="M430.89 427.512C430.851 427.512 430.814 427.498 430.786 427.472C430.758 427.446 430.74 427.41 430.737 427.372C427.941 400.527 421.369 335.575 420.569 312.277C419.717 288.495 420.492 235.136 420.746 219.349C420.746 219.308 420.763 219.27 420.791 219.241C420.82 219.212 420.859 219.196 420.899 219.196C420.941 219.196 420.981 219.212 421.012 219.24C421.042 219.268 421.061 219.307 421.064 219.349C420.81 235.136 420.035 288.495 420.886 312.264C421.713 335.563 428.284 400.489 431.055 427.334C431.055 427.377 431.04 427.419 431.012 427.452C430.984 427.484 430.945 427.506 430.902 427.512H430.89Z" fill="#407BFF"/>
<path opacity="0.4" d="M430.89 427.512C430.851 427.512 430.814 427.498 430.786 427.472C430.758 427.446 430.74 427.41 430.737 427.372C427.941 400.527 421.369 335.575 420.569 312.277C419.717 288.495 420.492 235.136 420.746 219.349C420.746 219.308 420.763 219.27 420.791 219.241C420.82 219.212 420.859 219.196 420.899 219.196C420.941 219.196 420.981 219.212 421.012 219.24C421.042 219.268 421.061 219.307 421.064 219.349C420.81 235.136 420.035 288.495 420.886 312.264C421.713 335.563 428.284 400.489 431.055 427.334C431.055 427.377 431.04 427.419 431.012 427.452C430.984 427.484 430.945 427.506 430.902 427.512H430.89Z" fill="white"/>
<path d="M424.534 432.571C424.471 432.571 425.437 439.143 425.437 439.143H444.668L445.189 433.283L424.534 432.571Z" fill="#407BFF"/>
<path opacity="0.1" d="M424.534 432.571C424.471 432.571 425.437 439.143 425.437 439.143H444.668L445.189 433.283L424.534 432.571Z" fill="black"/>
</svg>
